<?xml version="1.0" standalone="no"?>
<!DOCTYPE svg PUBLIC "-//W3C//DTD SVG 20010904//EN"
 "http://www.w3.org/TR/2001/REC-SVG-20010904/DTD/svg10.dtd">
<svg version="1.0" xmlns="http://www.w3.org/2000/svg"
 width="1024.000000pt" height="1024.000000pt" viewBox="0 0 1024.000000 1024.000000"
 preserveAspectRatio="xMidYMid meet">
<metadata>
Created by potrace 1.11, written by Peter Selinger 2001-2013
</metadata>
<g transform="translate(0.000000,1024.000000) scale(0.100000,-0.100000)"
fill="#000000" stroke="none">
<path d="M3547 9692 c-9 -2 -18 -13 -18 -25 -1 -12 -3 -31 -4 -42 -1 -11 -5
-51 -9 -90 -4 -38 -11 -106 -16 -150 -5 -44 -12 -109 -15 -145 -3 -36 -8 -81
-10 -100 -3 -19 -7 -62 -10 -95 -8 -89 -16 -167 -20 -195 -2 -14 -7 -58 -10
-99 -4 -41 -8 -82 -10 -90 -2 -9 -6 -54 -10 -100 -4 -47 -8 -92 -10 -101 -2
-9 -6 -54 -10 -101 -4 -46 -8 -91 -10 -99 -2 -8 -6 -49 -9 -90 -4 -41 -9 -91
-12 -111 -2 -20 -6 -56 -8 -80 -7 -80 -17 -174 -21 -199 -2 -14 -7 -61 -10
-105 -4 -44 -8 -81 -10 -83 -2 -2 -278 -3 -614 -3 -564 -1 -611 -2 -612 -17
-1 -9 -3 -26 -4 -37 -1 -11 -5 -51 -9 -90 -4 -38 -9 -83 -11 -100 -2 -16 -7
-61 -11 -100 -4 -38 -8 -83 -10 -100 -1 -16 -5 -57 -8 -90 -3 -33 -8 -82 -11
-110 -12 -98 -14 -121 -20 -185 -3 -36 -8 -76 -10 -90 -2 -14 -7 -63 -10 -110
-4 -47 -8 -92 -10 -100 -2 -8 -6 -49 -9 -90 -4 -41 -9 -86 -11 -100 -4 -27 -8
-63 -30 -297 l-7 -73 619 -2 c611 -3 618 -3 617 -23 -1 -18 -5 -62 -19 -200
-3 -22 -7 -67 -10 -100 -3 -33 -7 -78 -10 -100 -2 -22 -7 -71 -11 -110 -3 -38
-8 -83 -9 -100 -2 -16 -6 -61 -10 -100 -3 -38 -8 -83 -10 -100 -2 -16 -7 -66
-10 -110 -3 -44 -8 -91 -10 -105 -4 -25 -9 -83 -21 -200 -3 -36 -7 -67 -9 -71
-2 -3 -277 -5 -610 -5 -334 1 -609 -3 -612 -7 -3 -5 -7 -29 -9 -55 -2 -26 -6
-65 -9 -87 -6 -45 -13 -107 -20 -180 -16 -154 -22 -213 -30 -270 -3 -22 -8
-60 -10 -85 -14 -145 -14 -142 -30 -270 -3 -25 -8 -65 -10 -90 -2 -25 -7 -67
-10 -95 -3 -27 -7 -70 -10 -95 -3 -25 -7 -63 -10 -85 -3 -22 -8 -60 -10 -85
-2 -25 -7 -65 -9 -90 -3 -25 -8 -70 -11 -100 -3 -30 -8 -62 -11 -71 -3 -11 3
-18 18 -20 13 -2 292 -4 621 -3 l599 0 -6 -75 c-4 -42 -8 -89 -10 -106 -2 -16
-7 -64 -11 -105 -3 -41 -8 -86 -10 -100 -2 -14 -7 -59 -10 -100 -4 -41 -8 -88
-11 -105 -2 -16 -6 -63 -9 -102 -4 -40 -8 -81 -10 -92 -2 -10 -6 -55 -10 -100
-3 -44 -8 -89 -9 -98 -2 -10 -7 -52 -11 -93 -4 -41 -8 -82 -10 -90 -1 -8 -6
-53 -10 -100 -3 -47 -8 -96 -10 -110 -3 -23 -7 -55 -21 -200 -2 -25 -6 -65 -9
-90 -3 -25 -7 -70 -10 -100 -3 -30 -8 -77 -11 -105 -8 -80 -13 -136 -19 -202
l-6 -62 685 -1 686 0 1 27 c0 16 2 36 4 46 2 9 6 52 10 95 4 42 9 88 10 102 2
14 6 61 10 105 4 44 8 87 10 95 2 8 6 49 9 90 4 41 9 91 11 110 2 19 7 64 10
100 3 36 10 99 15 140 5 41 11 100 14 130 14 145 17 168 21 213 3 26 7 70 10
97 3 28 8 73 11 101 3 29 7 75 9 102 2 28 7 73 10 99 8 74 15 138 20 198 3 30
7 71 10 90 2 19 7 69 10 110 4 41 9 77 12 80 2 3 279 5 614 5 l609 1 -6 -61
c-3 -33 -7 -71 -9 -85 -1 -14 -5 -56 -9 -95 -3 -38 -8 -86 -11 -105 -2 -19 -7
-62 -10 -95 -3 -33 -8 -78 -10 -100 -3 -22 -7 -67 -10 -100 -3 -33 -8 -78 -10
-100 -5 -40 -10 -96 -21 -215 -3 -36 -7 -76 -9 -90 -3 -14 -7 -56 -10 -95 -4
-38 -10 -104 -15 -145 -5 -41 -12 -106 -15 -145 -3 -38 -8 -86 -11 -105 -2
-19 -6 -62 -9 -95 -3 -33 -7 -78 -10 -100 -2 -22 -7 -67 -10 -100 -4 -33 -8
-75 -10 -93 -3 -18 -7 -68 -11 -110 -3 -42 -7 -81 -7 -87 -1 -7 232 -11 680
-12 634 -2 682 -1 687 15 2 9 8 51 12 92 4 41 8 86 9 100 1 14 6 59 9 100 4
41 9 86 11 100 2 14 6 54 10 90 3 36 8 85 10 110 3 25 7 70 10 100 3 30 7 66
10 80 2 14 7 61 10 105 3 44 8 91 10 105 2 14 6 54 10 90 3 36 8 81 10 100 2
19 7 64 10 100 3 36 7 79 9 95 2 17 7 64 11 105 3 41 8 86 10 100 2 14 6 57
10 95 3 39 8 86 10 105 2 19 6 62 10 95 18 200 23 237 31 244 3 3 279 7 612 8
706 1 639 0 639 16 0 6 3 44 8 82 8 78 9 88 20 195 4 41 9 86 10 100 2 14 6
57 9 95 4 39 9 81 11 95 2 14 7 61 11 105 3 44 8 88 10 98 2 10 6 53 9 95 4
42 8 88 10 102 2 14 7 57 11 95 4 39 8 81 9 95 2 14 6 59 9 100 4 41 9 86 11
100 2 14 6 54 9 90 7 76 16 154 22 193 2 15 1 27 -3 28 -5 0 -287 2 -628 2
-544 2 -620 4 -619 17 1 29 16 195 19 212 2 9 6 52 10 95 3 42 8 91 10 108 2
16 7 59 10 95 3 36 7 79 9 95 2 17 7 66 11 110 4 44 9 94 11 110 1 17 6 64 9
105 3 41 8 86 10 100 2 14 7 61 11 105 4 44 8 89 10 100 1 11 3 32 3 48 l1 27
626 0 c344 0 623 3 621 8 -3 4 -1 34 3 67 9 63 19 152 25 220 2 22 6 54 9 70
2 17 7 64 11 105 3 41 8 82 10 90 2 8 7 44 10 80 4 36 8 81 11 100 2 19 6 60
9 90 3 30 8 71 10 90 3 19 7 62 10 95 3 33 7 71 10 85 3 24 7 53 20 180 3 30
8 71 10 90 3 19 7 58 10 85 3 28 7 66 9 85 3 19 8 61 11 92 l6 57 -603 0
c-332 0 -617 0 -635 0 -29 1 -31 4 -28 29 2 16 6 62 10 103 3 41 8 85 10 99 2
14 7 54 10 90 3 36 7 79 9 95 2 17 6 59 10 95 9 89 15 148 21 195 2 22 7 69
10 105 4 36 8 83 11 105 2 22 6 67 9 100 3 33 7 76 10 95 2 19 7 60 10 90 3
30 8 71 10 90 2 19 7 64 10 100 4 36 8 81 10 100 2 19 6 64 10 100 3 36 8 81
10 100 2 19 7 64 10 100 4 36 8 81 10 100 2 19 7 62 10 95 3 33 8 72 11 88 4
18 1 27 -8 28 -7 0 -316 1 -685 2 l-673 2 -4 -25 c-3 -14 -8 -61 -11 -105 -3
-44 -8 -87 -10 -95 -2 -8 -6 -46 -10 -85 -3 -38 -8 -89 -10 -112 -3 -24 -7
-62 -10 -85 -2 -24 -7 -74 -10 -113 -3 -38 -8 -81 -10 -95 -3 -14 -7 -56 -10
-95 -4 -38 -8 -81 -10 -95 -2 -14 -6 -54 -10 -90 -7 -77 -14 -151 -20 -200 -2
-19 -7 -64 -10 -100 -3 -36 -8 -81 -10 -100 -10 -94 -15 -140 -20 -200 -4 -36
-8 -72 -10 -80 -2 -8 -7 -53 -10 -100 -4 -47 -8 -92 -10 -100 -2 -8 -6 -52
-10 -98 -4 -46 -8 -91 -10 -100 -2 -9 -4 -21 -4 -27 -1 -8 -902 -12 -1199 -5
-24 0 -24 1 -17 85 3 47 8 93 10 103 2 10 6 51 10 91 3 40 8 80 9 89 2 9 7 53
10 97 4 44 9 91 11 105 2 14 6 57 10 95 3 39 8 86 10 105 2 19 7 62 10 95 3
33 8 76 10 95 3 33 7 73 20 200 3 30 8 71 10 90 2 19 7 64 10 100 6 70 12 131
19 195 8 66 16 147 21 200 3 28 7 68 10 90 2 22 7 65 9 95 3 30 8 82 11 115
l6 60 -669 0 c-368 0 -676 -1 -685 -3z m2199 -3864 c-9 -95 -13 -140 -21 -213
-4 -33 -9 -80 -11 -105 -2 -25 -6 -70 -9 -100 -3 -30 -8 -80 -11 -110 -2 -30
-7 -75 -9 -100 -3 -25 -7 -67 -9 -95 -3 -27 -8 -75 -11 -105 -3 -30 -8 -80
-11 -110 -3 -30 -7 -72 -10 -92 -2 -20 -6 -68 -10 -106 -7 -88 -8 -95 -16
-107 -4 -7 -204 -11 -610 -10 l-603 0 1 45 c0 43 10 160 20 245 2 22 6 60 8
85 3 25 8 77 12 115 8 85 9 99 18 195 4 41 9 86 11 100 2 14 7 63 10 110 3 47
8 96 10 110 2 14 7 50 9 80 12 133 22 233 25 238 0 1 276 2 612 2 l611 0 -6
-72z"/>
</g>
</svg>
